<?xml version="1.0" standalone="no"?>
<!DOCTYPE svg PUBLIC "-//W3C//DTD SVG 20010904//EN"
 "http://www.w3.org/TR/2001/REC-SVG-20010904/DTD/svg10.dtd">
<svg version="1.0" xmlns="http://www.w3.org/2000/svg"
 width="512.000000pt" height="512.000000pt" viewBox="0 0 512.000000 512.000000"
 preserveAspectRatio="xMidYMid meet">
<metadata>
Created by potrace 1.14, written by Peter Selinger 2001-2017
</metadata>
<g transform="translate(0.000000,512.000000) scale(0.100000,-0.100000)"
fill="#000000" stroke="none">
<path d="M2437 5104 c-1 -2 -40 -5 -87 -9 -121 -8 -189 -18 -292 -41 -35 -8
-77 -16 -93 -19 -17 -2 -75 -18 -130 -35 -55 -17 -104 -32 -110 -34 -5 -2 -19
-7 -30 -11 -11 -4 -51 -20 -90 -35 -83 -32 -285 -130 -302 -146 -6 -6 -25 -17
-42 -24 -17 -7 -31 -16 -31 -21 0 -5 -5 -9 -11 -9 -11 0 -179 -112 -210 -140
-9 -8 -33 -28 -54 -45 -171 -137 -358 -339 -490 -530 -77 -112 -175 -279 -175
-300 0 -7 -4 -15 -9 -17 -20 -7 -127 -283 -174 -448 -22 -76 -55 -226 -61
-280 -3 -25 -8 -55 -10 -68 -29 -138 -24 -550 8 -712 2 -14 7 -46 11 -73 3
-26 10 -58 15 -72 5 -14 7 -25 4 -25 -4 0 -1 -6 5 -13 6 -8 9 -16 6 -19 -8 -8
72 -278 95 -320 6 -10 10 -22 10 -26 0 -5 14 -40 32 -78 17 -38 32 -71 33 -74
2 -10 72 -146 101 -195 29 -51 169 -260 188 -282 6 -7 22 -26 36 -43 96 -119
232 -257 355 -357 50 -41 100 -82 112 -93 13 -10 26 -20 30 -22 11 -4 127 -82
133 -88 3 -3 22 -14 42 -25 21 -11 38 -23 38 -27 0 -5 9 -8 19 -8 11 0 22 -4
25 -9 5 -7 151 -83 166 -86 3 -1 25 -10 50 -22 112 -52 403 -143 505 -158 22
-4 47 -8 56 -11 9 -2 34 -7 55 -10 22 -2 50 -7 63 -9 128 -23 535 -24 658 -1
10 2 38 7 63 11 97 15 101 15 185 35 213 50 390 114 580 212 130 67 346 201
353 220 2 4 10 8 18 8 8 0 14 4 14 8 0 5 15 20 34 33 156 111 442 417 541 580
83 137 140 234 140 240 0 4 3 10 7 14 15 16 134 285 143 325 2 8 8 27 14 43 6
15 8 27 5 27 -4 0 -2 6 3 13 9 10 47 145 58 203 2 11 4 19 5 19 3 0 8 35 13
82 3 23 7 45 10 50 3 4 8 37 12 73 3 36 9 88 12 115 12 119 6 382 -12 540 -11
92 -32 203 -57 295 -11 41 -21 80 -22 85 -25 106 -100 297 -177 450 -37 72
-136 243 -149 255 -3 3 -25 34 -49 70 -25 36 -48 67 -51 70 -3 3 -31 37 -62
75 -71 89 -304 325 -322 325 -3 0 -24 18 -48 40 -24 22 -48 40 -55 40 -7 0
-16 6 -20 13 -8 14 -182 130 -243 163 -19 11 -38 24 -42 29 -4 6 -8 6 -8 2 0
-5 -13 1 -30 13 -16 12 -30 18 -30 14 0 -4 -8 0 -17 8 -10 8 -45 26 -79 41
-121 53 -139 61 -144 62 -3 1 -12 4 -20 8 -35 14 -207 69 -225 72 -11 2 -35 8
-52 14 -18 5 -33 7 -33 4 0 -3 -7 0 -15 7 -8 7 -15 10 -15 7 0 -3 -19 -1 -42
5 -71 16 -150 29 -198 33 -25 2 -65 7 -90 10 -43 6 -348 14 -353 9z"/>
</g>
</svg>
